<svg id="Layer_1" data-name="Layer 1" xmlns="http://www.w3.org/2000/svg" xmlns:xlink="http://www.w3.org/1999/xlink" viewBox="0 0 500 500"><defs><style>.cls-1{fill:none;}.cls-2{clip-path:url(#clip-path);}.cls-3{opacity:0.4;}.cls-4{fill:#fff;}.cls-5{opacity:0.2;}</style><clipPath id="clip-path"><rect class="cls-1" x="-0.08" y="-0.5" width="501" height="501" transform="translate(500.83 500) rotate(-180)"/></clipPath></defs><title>home-bg-right</title><g class="cls-2"><g class="cls-3"><circle class="cls-4" cx="491.5" cy="419.5" r="108"/><circle class="cls-4" cx="543" cy="314" r="57"/><circle class="cls-4" cx="358.5" cy="511.5" r="92.5"/><circle class="cls-4" cx="381" cy="427" r="26"/><circle class="cls-4" cx="258.5" cy="521.5" r="44.5"/><circle class="cls-4" cx="212" cy="505" r="16"/></g><g class="cls-5"><circle class="cls-4" cx="374.32" cy="547.01" r="127.34" transform="translate(-276.84 670.84) rotate(-66.38)"/><circle class="cls-4" cx="479.79" cy="457.36" r="67.21" transform="translate(-131.48 713.74) rotate(-66.38)"/><circle class="cls-4" cx="187.17" cy="583.58" r="109.07" transform="translate(-422.51 521.29) rotate(-66.38)"/><circle class="cls-4" cx="251.4" cy="502.92" r="30.66" transform="translate(-310.12 531.78) rotate(-66.38)"/><circle class="cls-4" cx="74.42" cy="547.15" r="52.47" transform="translate(-456.72 396.14) rotate(-66.38)"/><circle class="cls-4" cx="31.98" cy="507.36" r="18.87" transform="translate(-445.7 333.4) rotate(-66.38)"/></g></g></svg>