<svg id="Layer_1" data-name="Layer 1" xmlns="http://www.w3.org/2000/svg" xmlns:xlink="http://www.w3.org/1999/xlink" viewBox="0 0 500 500"><defs><style>.cls-1{fill:none;}.cls-2{clip-path:url(#clip-path);}.cls-3{opacity:0.4;}.cls-4{fill:#fff;}.cls-5{opacity:0.2;}</style><clipPath id="clip-path"><rect class="cls-1" x="-0.5" y="-0.5" width="501" height="501"/></clipPath></defs><title>home-bg-left</title><g class="cls-2"><g class="cls-3"><circle class="cls-4" cx="72.5" cy="419.5" r="108"/><circle class="cls-4" cx="21" cy="314" r="57"/><circle class="cls-4" cx="1" cy="259" r="23"/><circle class="cls-4" cx="205.5" cy="511.5" r="92.5"/><circle class="cls-4" cx="183" cy="427" r="26"/><circle class="cls-4" cx="305.5" cy="521.5" r="44.5"/><circle class="cls-4" cx="352" cy="505" r="16"/></g><g class="cls-5"><circle class="cls-4" cx="126.1" cy="547.01" r="127.34" transform="translate(-208.58 96.33) rotate(-23.62)"/><circle class="cls-4" cx="20.63" cy="457.36" r="67.21" transform="translate(-181.5 46.57) rotate(-23.62)"/><circle class="cls-4" cx="-26.96" cy="407.39" r="27.12" transform="translate(-165.47 23.32) rotate(-23.62)"/><circle class="cls-4" cx="313.24" cy="583.58" r="109.07" transform="translate(-207.56 174.37) rotate(-23.62)"/><circle class="cls-4" cx="249.02" cy="502.92" r="30.66" transform="translate(-180.62 141.88) rotate(-23.62)"/><circle class="cls-4" cx="426" cy="547.15" r="52.47" transform="translate(-183.52 216.49) rotate(-23.62)"/><circle class="cls-4" cx="468.44" cy="507.36" r="18.87" transform="translate(-164.02 230.16) rotate(-23.62)"/></g></g></svg>