<svg xmlns="http://www.w3.org/2000/svg" viewBox="0 0 582.91 139.23"><defs><style>.cls-1{opacity:0.11;}.cls-2{fill:#fff;}</style></defs><title>Asset 2</title><g id="Layer_2" data-name="Layer 2"><g id="Layer_1-2" data-name="Layer 1"><g class="cls-1"><path class="cls-2" d="M5.16,139.23A5.15,5.15,0,0,1,0,133.65,62.83,62.83,0,0,1,61.65,76.41h0a14.5,14.5,0,0,1,23.8-11.12,87,87,0,0,1,112.9-24,15,15,0,0,1,23-4.82,90,90,0,0,1,143.41-1.78,15,15,0,0,1,21.4,9.2A87,87,0,0,1,502.08,63.56a14.67,14.67,0,0,1,11.15-1A14.37,14.37,0,0,1,523.31,76.4v.07a62.84,62.84,0,0,1,59.57,55.88,6.19,6.19,0,0,1-6.13,6.88Z"/></g></g></g></svg>